<mxfile host="Electron" agent="Mozilla/5.0 (Windows NT 10.0; Win64; x64) AppleWebKit/537.36 (KHTML, like Gecko) draw.io/25.0.2 Chrome/128.0.6613.186 Electron/32.2.5 Safari/537.36" version="25.0.2">
  <diagram name="第 1 页" id="5PLZtI0vADIsoyHd6vCE">
    <mxGraphModel dx="1434" dy="836" grid="1" gridSize="10" guides="1" tooltips="1" connect="1" arrows="1" fold="1" page="1" pageScale="1" pageWidth="827" pageHeight="1169" math="0" shadow="0">
      <root>
        <mxCell id="0" />
        <mxCell id="1" parent="0" />
        <mxCell id="tJGuQkoCv7wTUauiJE18-18" style="edgeStyle=orthogonalEdgeStyle;rounded=0;orthogonalLoop=1;jettySize=auto;html=1;exitX=0.5;exitY=1;exitDx=0;exitDy=0;entryX=0.5;entryY=0;entryDx=0;entryDy=0;" edge="1" parent="1" source="tJGuQkoCv7wTUauiJE18-4" target="tJGuQkoCv7wTUauiJE18-6">
          <mxGeometry relative="1" as="geometry" />
        </mxCell>
        <mxCell id="tJGuQkoCv7wTUauiJE18-4" value="" style="rounded=0;whiteSpace=wrap;html=1;fillColor=#e1d5e7;strokeColor=#9673a6;" vertex="1" parent="1">
          <mxGeometry x="50" y="50" width="340" height="130" as="geometry" />
        </mxCell>
        <mxCell id="tJGuQkoCv7wTUauiJE18-3" style="edgeStyle=orthogonalEdgeStyle;rounded=0;orthogonalLoop=1;jettySize=auto;html=1;exitX=1;exitY=0.5;exitDx=0;exitDy=0;" edge="1" parent="1" source="tJGuQkoCv7wTUauiJE18-1" target="tJGuQkoCv7wTUauiJE18-2">
          <mxGeometry relative="1" as="geometry" />
        </mxCell>
        <mxCell id="tJGuQkoCv7wTUauiJE18-1" value="&lt;font style=&quot;font-size: 16px;&quot; color=&quot;#0d0d0d&quot;&gt;Chinese traditional poetry&lt;/font&gt;" style="rounded=0;whiteSpace=wrap;html=1;fillColor=#f5f5f5;fontColor=#333333;strokeColor=#666666;" vertex="1" parent="1">
          <mxGeometry x="55" y="85" width="130" height="50" as="geometry" />
        </mxCell>
        <mxCell id="tJGuQkoCv7wTUauiJE18-2" value="&lt;span style=&quot;font-family: Verdana;&quot;&gt;&lt;font style=&quot;font-size: 15px;&quot;&gt;Matrix&lt;br&gt;Encoding Module&amp;nbsp;&lt;/font&gt;&lt;/span&gt;&lt;span style=&quot;font-size: 14pt; font-family: Verdana;&quot;&gt;&amp;nbsp;&lt;/span&gt;" style="rounded=1;whiteSpace=wrap;html=1;fillColor=#d5e8d4;strokeColor=#82b366;" vertex="1" parent="1">
          <mxGeometry x="225" y="80" width="160" height="60" as="geometry" />
        </mxCell>
        <mxCell id="tJGuQkoCv7wTUauiJE18-5" value="&lt;font style=&quot;font-size: 17px;&quot;&gt;&lt;b&gt;new head module&lt;/b&gt;&lt;/font&gt;" style="text;html=1;align=center;verticalAlign=middle;whiteSpace=wrap;rounded=0;" vertex="1" parent="1">
          <mxGeometry x="130" y="150" width="180" height="20" as="geometry" />
        </mxCell>
        <mxCell id="tJGuQkoCv7wTUauiJE18-15" style="edgeStyle=orthogonalEdgeStyle;rounded=0;orthogonalLoop=1;jettySize=auto;html=1;exitX=0.5;exitY=1;exitDx=0;exitDy=0;" edge="1" parent="1" source="tJGuQkoCv7wTUauiJE18-6" target="tJGuQkoCv7wTUauiJE18-12">
          <mxGeometry relative="1" as="geometry" />
        </mxCell>
        <mxCell id="tJGuQkoCv7wTUauiJE18-16" style="edgeStyle=orthogonalEdgeStyle;rounded=0;orthogonalLoop=1;jettySize=auto;html=1;exitX=0.5;exitY=1;exitDx=0;exitDy=0;" edge="1" parent="1" source="tJGuQkoCv7wTUauiJE18-6" target="tJGuQkoCv7wTUauiJE18-13">
          <mxGeometry relative="1" as="geometry" />
        </mxCell>
        <mxCell id="tJGuQkoCv7wTUauiJE18-6" value="&lt;font style=&quot;font-size: 16px;&quot;&gt;&lt;b style=&quot;&quot;&gt;PLMS / TransformerEncode&lt;/b&gt;&lt;/font&gt;" style="rounded=0;whiteSpace=wrap;html=1;fillColor=#ffe6cc;strokeColor=#d79b00;" vertex="1" parent="1">
          <mxGeometry x="110" y="230" width="220" height="70" as="geometry" />
        </mxCell>
        <mxCell id="tJGuQkoCv7wTUauiJE18-19" style="edgeStyle=orthogonalEdgeStyle;rounded=0;orthogonalLoop=1;jettySize=auto;html=1;exitX=0;exitY=0.5;exitDx=0;exitDy=0;" edge="1" parent="1" source="tJGuQkoCv7wTUauiJE18-8" target="tJGuQkoCv7wTUauiJE18-6">
          <mxGeometry relative="1" as="geometry" />
        </mxCell>
        <mxCell id="tJGuQkoCv7wTUauiJE18-8" value="&lt;font style=&quot;font-size: 18px;&quot;&gt;LoRA&lt;/font&gt;" style="rounded=1;whiteSpace=wrap;html=1;fillColor=#f8cecc;strokeColor=#b85450;" vertex="1" parent="1">
          <mxGeometry x="350" y="240" width="70" height="50" as="geometry" />
        </mxCell>
        <mxCell id="tJGuQkoCv7wTUauiJE18-17" style="edgeStyle=orthogonalEdgeStyle;rounded=0;orthogonalLoop=1;jettySize=auto;html=1;exitX=0;exitY=0.5;exitDx=0;exitDy=0;entryX=0;entryY=0.5;entryDx=0;entryDy=0;" edge="1" parent="1" source="tJGuQkoCv7wTUauiJE18-12" target="tJGuQkoCv7wTUauiJE18-6">
          <mxGeometry relative="1" as="geometry" />
        </mxCell>
        <mxCell id="tJGuQkoCv7wTUauiJE18-12" value="&lt;span style=&quot;font-family: Verdana;&quot;&gt;&lt;font style=&quot;font-size: 16px;&quot;&gt;Speech&lt;br&gt;Discrimination Module&lt;/font&gt;&lt;/span&gt;" style="rounded=0;whiteSpace=wrap;html=1;fillColor=#dae8fc;strokeColor=#6c8ebf;" vertex="1" parent="1">
          <mxGeometry x="50" y="380" width="180" height="60" as="geometry" />
        </mxCell>
        <mxCell id="tJGuQkoCv7wTUauiJE18-13" value="&lt;font style=&quot;font-size: 16px;&quot; face=&quot;Verdana&quot;&gt;Generated traditional Chinese poetry&lt;/font&gt;" style="rounded=0;whiteSpace=wrap;html=1;fillColor=#fff2cc;strokeColor=#d6b656;" vertex="1" parent="1">
          <mxGeometry x="240" y="380" width="180" height="60" as="geometry" />
        </mxCell>
      </root>
    </mxGraphModel>
  </diagram>
</mxfile>
